<svg id="visual" viewBox="0 0 900 600" width="900" height="600" xmlns="http://www.w3.org/2000/svg" xmlns:xlink="http://www.w3.org/1999/xlink" version="1.1"><path d="M0 410L21.5 425.5C43 441 86 472 128.8 477.8C171.7 483.7 214.3 464.3 257.2 443.3C300 422.3 343 399.7 385.8 388.2C428.7 376.7 471.3 376.3 514.2 385.2C557 394 600 412 642.8 428.7C685.7 445.3 728.3 460.7 771.2 455.7C814 450.7 857 425.3 878.5 412.7L900 400L900 601L878.5 601C857 601 814 601 771.2 601C728.3 601 685.7 601 642.8 601C600 601 557 601 514.2 601C471.3 601 428.7 601 385.8 601C343 601 300 601 257.2 601C214.3 601 171.7 601 128.8 601C86 601 43 601 21.5 601L0 601Z" fill="#0188bf" stroke-linecap="round" stroke-linejoin="miter"></path></svg>